<svg width="152" height="152" viewBox="0 0 152 152" fill="none" xmlns="http://www.w3.org/2000/svg">
<g id="Arrow_11" clip-path="url(#clip0_268_211)">
<g id="Group">
<path id="Vector" fill-rule="evenodd" clip-rule="evenodd" d="M82.4735 85.8999C82.2689 85.3641 81.9576 84.8483 81.6464 84.3335C80.1588 81.5206 78.4767 78.2308 76.1005 76.0022C72.9422 73.0873 69.8277 72.2945 66.9476 72.832C62.8947 73.5919 59.2558 77.3219 57.4149 81.8785C55.5674 86.3978 55.3964 91.6791 57.7226 95.4988C59.287 98.1218 62.0609 100.106 66.3521 100.698C71.2131 101.397 75.3767 99.3902 78.7546 96.0521C80.0746 94.7903 81.145 93.3631 82.194 91.8141C82.8215 93.4983 83.4524 95.1995 84.0873 96.9254C85.9711 102.61 87.2666 108.706 87.9833 114.645C89.0348 122.483 88.7438 130.21 87.0199 137.929C86.9233 138.631 87.3783 139.336 88.0677 139.496C88.7569 139.656 89.4487 139.207 89.6521 138.486C91.433 130.465 91.7794 122.427 90.674 114.283C89.8203 108.192 88.5998 101.9 86.5791 96.064C85.713 93.6517 84.8553 91.2853 83.8953 88.9656C85.7946 85.3649 87.0978 81.5069 87.7457 78.3076C91.6965 56.973 77.2202 31.7345 64.4049 15.2932C63.9724 14.715 63.1812 14.6055 62.5992 15.054C62.0174 15.5037 61.9425 16.3289 62.375 16.9071C74.7671 32.8226 88.9766 57.1683 85.1261 77.8219C84.6729 80.2509 83.7446 83.1107 82.4735 85.8999ZM80.8995 88.8482C80.4842 87.7425 79.964 86.663 79.3368 85.6057C77.8931 83.0418 76.472 79.9803 74.3476 77.9299C71.9759 75.7268 69.6463 75.0171 67.5128 75.4153C64.0996 76.0535 61.3483 79.194 59.9034 82.8721C58.3581 86.6053 58.0268 90.9762 60.013 94.1176C61.2523 96.1468 63.3864 97.6249 66.6641 98.0925C70.7302 98.657 74.1683 96.9137 76.8808 94.1756C78.4824 92.636 79.8113 90.7997 80.8995 88.8482Z" fill="black"/>
<path id="Vector_2" fill-rule="evenodd" clip-rule="evenodd" d="M63.0895 15.3207C63.6903 15.6037 64.3241 16.0737 64.9581 16.5447C66.2183 17.4431 67.3833 18.4254 68.3452 18.8816C74.1335 21.7151 81.1103 25.0409 87.5468 25.9267C88.2269 26.0349 88.9088 25.5279 89.0019 24.8063C89.0952 24.0858 88.6454 23.4081 87.8584 23.3188C81.7564 22.4556 75.1239 19.2123 69.469 16.5107C68.4985 16.0053 67.0787 14.8233 65.8138 13.8982C64.6855 13.1232 63.5907 12.5394 62.5808 12.4355C62.0126 12.3373 61.0885 12.7206 60.6595 14.0369C60.1054 15.8931 60.1918 20.7611 60.1658 21.2383C59.9161 26.0709 59.5682 30.3455 56.0246 33.9937C55.5647 34.51 55.6019 35.3442 56.0248 35.8679C56.5545 36.3728 57.4322 36.3502 57.8919 35.8329C61.8974 31.6801 62.5862 26.8396 62.8282 21.3385C62.7687 21.0008 62.697 18.0948 62.9913 16.0145C63.0606 15.783 63.0196 15.5489 63.0895 15.3207Z" fill="black"/>
</g>
</g>
<defs>
<clipPath id="clip0_268_211">
<rect width="130" height="130" fill="white" transform="translate(0.700195 23.2749) rotate(-10)"/>
</clipPath>
</defs>
</svg>
